<?xml version="1.0" encoding="UTF-8"?>
<svg id="Layer_1" data-name="Layer 1" xmlns="http://www.w3.org/2000/svg" xmlns:xlink="http://www.w3.org/1999/xlink" viewBox="0 0 1031.93 227.4">
  <defs>
    <style>
      .cls-1 {
        fill: url(#linear-gradient);
      }
    </style>
    <linearGradient id="linear-gradient" x1="0" y1="4883.7" x2="358.9" y2="4883.7" gradientTransform="translate(0 -4770)" gradientUnits="userSpaceOnUse">
      <stop offset=".14" stop-color="#8b4cff"/>
      <stop offset=".54" stop-color="#c265ff"/>
      <stop offset=".93" stop-color="#fc7fff"/>
    </linearGradient>
  </defs>
  <path class="cls-1" d="m263.4,16.19c-20.9-20.9-54.8-20.9-75.8,0l-9.3,9.3-9.6-9.7c-21.3-21.4-56.1-21-76.8.9L0,113.39l93.9,96.3c20.8,21.4,55.1,21.6,76.2.5l8.3-8.3,9.8,9.8c21.3,21.3,55.9,20.9,76.7-1l94-98.9c0-.1-95.5-95.6-95.5-95.6Zm-1.4,97.2l-50.8-53.6-43.4,43.8,25.4-15.7,24.3,25.8-69.3,72.9c-8.6,9-22.9,9.1-31.5.2L45.4,113.49,114.5,39.99c8.3-8.8,22.2-9.2,31-.9l10.3,9.8-60.3,64.8,50.4,53.9,44.8-45.1-26.7,16.3-25.7-25.4,71.1-73.4c8.5-8.8,22.6-8.9,31.3-.2l72.8,73.6-71.6,74.8c-8.6,9-23.1,9-31.7-.1l-10.2-10.7,62-64Z"/>
  <path d="m442.82,39.44h15.29v82.21h-15.29v-34.06h-29.01v34.06h-15.4V39.44h15.4v32.65h29.01v-32.65Z"/>
  <path d="m512.67,62.93h14.39v58.73h-14.39v-6.58c-3.5,5.48-9.04,8.22-16.62,8.22-6.1,0-11.14-2.15-15.12-6.46-3.98-4.31-5.97-10.26-5.97-17.85v-36.06h14.39v34.18c0,3.92,1,6.91,3.01,8.98,2.01,2.08,4.69,3.11,8.03,3.11,3.72,0,6.69-1.21,8.93-3.64,2.23-2.43,3.35-6.07,3.35-10.92v-31.71Z"/>
  <path d="m576.6,61.28c7.51,0,13.93,2.99,19.25,8.98,5.32,5.99,7.98,13.33,7.98,22.02s-2.66,16.03-7.98,22.02c-5.32,5.99-11.73,8.99-19.25,8.99s-13.84-2.86-18.08-8.57v6.93h-14.39V39.44h14.39v30.42c4.24-5.71,10.26-8.57,18.08-8.57Zm-13.72,42.93c2.9,3.09,6.58,4.64,11.05,4.64s8.16-1.54,11.1-4.64c2.94-3.09,4.41-7.07,4.41-11.92s-1.47-8.83-4.41-11.92c-2.94-3.09-6.64-4.64-11.1-4.64s-8.15,1.55-11.05,4.64c-2.9,3.09-4.35,7.07-4.35,11.92s1.45,8.83,4.35,11.92Z"/>
  <path d="m650.35,61.28c7.51,0,13.93,2.99,19.25,8.98,5.32,5.99,7.98,13.33,7.98,22.02s-2.66,16.03-7.98,22.02c-5.32,5.99-11.74,8.99-19.25,8.99s-13.84-2.86-18.08-8.57v30.42h-14.39V62.93h14.39v6.93c4.24-5.71,10.27-8.57,18.08-8.57Zm-13.72,42.93c2.9,3.09,6.58,4.64,11.05,4.64s8.16-1.54,11.1-4.64c2.94-3.09,4.41-7.07,4.41-11.92s-1.47-8.83-4.41-11.92c-2.94-3.09-6.64-4.64-11.1-4.64s-8.14,1.55-11.05,4.64c-2.9,3.09-4.35,7.07-4.35,11.92s1.45,8.83,4.35,11.92Z"/>
  <path d="m705.91,73.03c1.34-3.76,3.55-6.58,6.64-8.46,3.09-1.88,6.53-2.82,10.32-2.82v16.91c-4.39-.55-8.31.39-11.77,2.82-3.46,2.43-5.19,6.46-5.19,12.1v28.07h-14.39v-58.73h14.39v10.1Z"/>
  <path d="m782.68,114.31c-5.73,5.99-12.72,8.99-20.98,8.99s-15.23-3-20.92-8.99c-5.69-5.99-8.54-13.33-8.54-22.02s2.85-16.03,8.54-22.02c5.69-5.99,12.66-8.98,20.92-8.98s15.25,2.99,20.98,8.98c5.73,5.99,8.59,13.33,8.59,22.02s-2.86,16.03-8.59,22.02Zm-31.74-10.39c2.86,3.05,6.45,4.58,10.77,4.58s7.92-1.53,10.82-4.58c2.9-3.05,4.35-6.93,4.35-11.63s-1.45-8.57-4.35-11.63c-2.9-3.05-6.51-4.58-10.82-4.58s-7.91,1.53-10.77,4.58c-2.86,3.05-4.3,6.93-4.3,11.63s1.43,8.57,4.3,11.63Z"/>
  <path d="m835.79,77.49h-12.61v24.43c0,2.04.48,3.52,1.45,4.46.97.94,2.38,1.47,4.24,1.59,1.86.12,4.17.1,6.92-.06v13.74c-9.89,1.17-16.87.19-20.92-2.94-4.05-3.13-6.08-8.73-6.08-16.8v-24.43h-9.71v-14.56h9.71v-11.86l14.39-4.58v16.44h12.61v14.56Z"/>
  <path d="m861.11,98.51c1.93,7.36,7.18,11.04,15.73,11.04,5.5,0,9.67-1.96,12.5-5.87l11.6,7.05c-5.51,8.38-13.61,12.57-24.32,12.57-9.22,0-16.62-2.94-22.2-8.81-5.58-5.87-8.37-13.27-8.37-22.2s2.75-16.23,8.26-22.14c5.5-5.91,12.57-8.87,21.2-8.87,8.18,0,14.93,2.98,20.25,8.93,5.32,5.95,7.98,13.31,7.98,22.08,0,1.96-.19,4.03-.56,6.22h-42.06Zm-.22-11.75h28.45c-.82-3.99-2.51-6.97-5.08-8.93-2.57-1.96-5.49-2.94-8.76-2.94-3.87,0-7.07,1.04-9.6,3.11-2.53,2.08-4.2,4.99-5.02,8.75Z"/>
  <path d="m942.89,123.3c-8.41,0-15.42-2.98-21.03-8.93-5.62-5.95-8.42-13.31-8.42-22.08s2.81-16.13,8.42-22.08c5.62-5.95,12.63-8.93,21.03-8.93,5.43,0,10.38,1.37,14.84,4.11,4.46,2.74,7.85,6.42,10.15,11.04l-12.39,7.63c-1.12-2.43-2.81-4.35-5.08-5.75-2.27-1.41-4.82-2.11-7.64-2.11-4.31,0-7.88,1.51-10.71,4.52-2.83,3.02-4.24,6.87-4.24,11.57s1.41,8.44,4.24,11.45c2.83,3.02,6.4,4.52,10.71,4.52,2.9,0,5.49-.68,7.75-2.06,2.27-1.37,3.96-3.27,5.08-5.7l12.5,7.52c-2.45,4.62-5.91,8.32-10.38,11.1-4.46,2.78-9.41,4.17-14.84,4.17Z"/>
  <path d="m1010.85,61.28c6.1,0,11.14,2.15,15.12,6.46,3.98,4.31,5.97,10.26,5.97,17.85v36.06h-14.39v-34.18c0-3.91-1-6.91-3.01-8.99-2.01-2.07-4.69-3.11-8.03-3.11-3.72,0-6.69,1.21-8.93,3.64-2.23,2.43-3.35,6.07-3.35,10.92v31.71h-14.39V39.44h14.39v30.07c3.5-5.48,9.04-8.22,16.62-8.22Z"/>
  <path d="m410.42,165.42c1.23.56,2.22,1.41,2.95,2.54.74,1.13,1.11,2.42,1.11,3.87,0,2.06-.69,3.82-2.07,5.27-1.38,1.45-3.04,2.17-5,2.17h-11.05v-26.71h10.22c1.88,0,3.49.71,4.82,2.12,1.33,1.41,1.99,3.1,1.99,5.06,0,2.49-.99,4.39-2.97,5.68Zm-3.84-10.34h-7.68v9.31h7.68c1.18,0,2.19-.45,3.03-1.35.83-.9,1.25-2,1.25-3.3s-.42-2.37-1.25-3.28c-.83-.92-1.84-1.37-3.03-1.37Zm.83,21.67c1.26,0,2.33-.48,3.21-1.43.88-.95,1.32-2.12,1.32-3.49s-.44-2.5-1.32-3.47c-.88-.97-1.95-1.45-3.21-1.45h-8.52v9.84h8.52Z"/>
  <path d="m432.16,160.2h2.39v19.08h-2.39v-2.98c-1.35,2.29-3.38,3.43-6.09,3.43-2.2,0-3.93-.71-5.2-2.12s-1.9-3.31-1.9-5.7v-11.71h2.39v11.71c0,1.7.43,3.03,1.29,3.97.86.94,2.07,1.41,3.64,1.41,1.74,0,3.15-.58,4.24-1.74,1.09-1.16,1.63-2.94,1.63-5.36v-10Z"/>
  <path d="m443.07,155.62c-.34.36-.75.53-1.23.53s-.89-.18-1.23-.53c-.34-.36-.51-.79-.51-1.3s.17-.94.51-1.3c.34-.36.75-.53,1.23-.53s.89.18,1.23.53c.34.36.51.79.51,1.3s-.17.94-.51,1.3Zm-2.43,23.65v-19.08h2.39v19.08h-2.39Z"/>
  <path d="m449.12,179.27v-27.85h2.39v27.85h-2.39Z"/>
  <path d="m473.19,152.57h2.39v26.71h-2.39v-3.74c-1.67,2.8-4.11,4.2-7.32,4.2-2.59,0-4.79-.97-6.61-2.9-1.82-1.93-2.74-4.3-2.74-7.1s.91-5.16,2.74-7.1c1.82-1.93,4.03-2.9,6.61-2.9,3.21,0,5.65,1.4,7.32,4.2v-11.37Zm-12.21,22.53c1.38,1.46,3.07,2.19,5.07,2.19s3.7-.73,5.07-2.19c1.38-1.46,2.07-3.25,2.07-5.36s-.69-3.9-2.07-5.36c-1.38-1.46-3.07-2.19-5.07-2.19s-3.7.73-5.07,2.19c-1.38,1.46-2.07,3.25-2.07,5.36s.69,3.9,2.07,5.36Z"/>
  <path d="m484.1,155.62c-.34.36-.75.53-1.23.53s-.89-.18-1.23-.53c-.34-.36-.51-.79-.51-1.3s.17-.94.51-1.3c.34-.36.75-.53,1.23-.53s.89.18,1.23.53c.34.36.51.79.51,1.3s-.17.94-.51,1.3Zm-2.43,23.65v-19.08h2.39v19.08h-2.39Z"/>
  <path d="m498.63,159.74c2.2,0,3.93.71,5.2,2.12,1.27,1.41,1.9,3.31,1.9,5.7v11.71h-2.39v-11.71c0-1.7-.43-3.03-1.29-3.97-.86-.94-2.07-1.41-3.64-1.41-1.74,0-3.15.58-4.24,1.74-1.09,1.16-1.63,2.94-1.63,5.36v10h-2.39v-19.08h2.39v2.98c1.35-2.29,3.38-3.43,6.09-3.43Z"/>
  <path d="m526.97,160.2h2.39v18.31c0,2.75-.89,4.91-2.68,6.49-1.79,1.58-3.93,2.37-6.42,2.37-4.25,0-7.12-1.55-8.59-4.65l2.1-1.26c1.09,2.31,3.25,3.47,6.49,3.47,2.08,0,3.71-.58,4.91-1.74,1.2-1.16,1.79-2.71,1.79-4.67v-2.98c-1.67,2.8-4.11,4.2-7.32,4.2-2.59,0-4.79-.97-6.61-2.9-1.83-1.93-2.74-4.3-2.74-7.1s.91-5.16,2.74-7.1c1.82-1.93,4.03-2.9,6.61-2.9,3.21,0,5.65,1.4,7.32,4.2v-3.74Zm-12.21,14.9c1.38,1.46,3.07,2.19,5.07,2.19s3.7-.73,5.07-2.19,2.07-3.25,2.07-5.36-.69-3.9-2.07-5.36c-1.38-1.46-3.07-2.19-5.07-2.19s-3.7.73-5.07,2.19c-1.38,1.46-2.07,3.25-2.07,5.36s.69,3.9,2.07,5.36Z"/>
  <path d="m564.18,162.64h-5.22v11.56c0,1.04.19,1.79.58,2.23.39.45.97.67,1.74.69s1.74,0,2.9-.06v2.21c-2.54.41-4.44.22-5.71-.57s-1.9-2.29-1.9-4.5v-11.56h-3.81v-2.44h3.81v-4.58l2.39-.76v5.34h5.22v2.44Z"/>
  <path d="m578.06,159.74c2.2,0,3.93.71,5.2,2.12,1.27,1.41,1.9,3.31,1.9,5.7v11.71h-2.39v-11.71c0-1.7-.43-3.03-1.29-3.97-.86-.94-2.07-1.41-3.64-1.41-1.74,0-3.15.58-4.24,1.74-1.09,1.16-1.63,2.94-1.63,5.36v10h-2.39v-26.71h2.39v10.61c1.35-2.29,3.38-3.43,6.09-3.43Z"/>
  <path d="m599.19,159.74c2.68,0,4.85,1,6.5,2.99,1.66,2,2.48,4.36,2.48,7.08,0,.28-.02.67-.07,1.18h-15.91c.24,1.93,1.02,3.47,2.34,4.6,1.32,1.13,2.94,1.7,4.87,1.7,1.38,0,2.57-.3,3.57-.9,1-.6,1.76-1.38,2.26-2.35l2.1,1.3c-.8,1.35-1.88,2.42-3.26,3.21-1.38.79-2.95,1.18-4.71,1.18-2.85,0-5.17-.94-6.96-2.82-1.79-1.88-2.68-4.27-2.68-7.17s.88-5.23,2.65-7.13c1.76-1.91,4.04-2.86,6.81-2.86Zm0,2.44c-1.88,0-3.46.59-4.73,1.77s-2.02,2.72-2.26,4.6h13.52c-.24-2.01-.98-3.57-2.21-4.69-1.23-1.12-2.67-1.68-4.31-1.68Z"/>
  <path d="m632.14,154.55c-1.76-.15-3.08.17-3.93.95-.86.79-1.29,2.1-1.29,3.93v.76h5.22v2.44h-5.22v16.63h-2.39v-16.63h-3.08v-2.44h3.08v-.76c0-2.49.66-4.38,1.97-5.67,1.32-1.28,3.2-1.84,5.64-1.66v2.44Z"/>
  <path d="m648.44,160.2h2.39v19.08h-2.39v-2.98c-1.35,2.29-3.38,3.43-6.09,3.43-2.2,0-3.93-.71-5.2-2.12s-1.9-3.31-1.9-5.7v-11.71h2.39v11.71c0,1.7.43,3.03,1.29,3.97.86.94,2.07,1.41,3.64,1.41,1.74,0,3.15-.58,4.24-1.74,1.09-1.16,1.63-2.94,1.63-5.36v-10Z"/>
  <path d="m666.53,162.64h-5.22v11.56c0,1.04.19,1.79.58,2.23.39.45.97.67,1.74.69.77.01,1.74,0,2.9-.06v2.21c-2.54.41-4.44.22-5.71-.57s-1.9-2.29-1.9-4.5v-11.56h-3.81v-2.44h3.81v-4.58l2.39-.76v5.34h5.22v2.44Z"/>
  <path d="m684.29,160.2h2.39v19.08h-2.39v-2.98c-1.35,2.29-3.38,3.43-6.09,3.43-2.2,0-3.93-.71-5.2-2.12s-1.9-3.31-1.9-5.7v-11.71h2.39v11.71c0,1.7.43,3.03,1.29,3.97.86.94,2.07,1.41,3.64,1.41,1.74,0,3.15-.58,4.24-1.74,1.09-1.16,1.63-2.94,1.63-5.36v-10Z"/>
  <path d="m700.58,163.36c1.11-2.31,3.02-3.47,5.73-3.47v2.44c-1.64,0-3.01.51-4.1,1.53-1.09,1.02-1.63,2.62-1.63,4.81v10.61h-2.39v-19.08h2.39v3.17Z"/>
  <path d="m720.74,159.74c2.68,0,4.85,1,6.5,2.99,1.66,2,2.48,4.36,2.48,7.08,0,.28-.02.67-.07,1.18h-15.91c.24,1.93,1.02,3.47,2.34,4.6,1.32,1.13,2.94,1.7,4.87,1.7,1.38,0,2.57-.3,3.57-.9,1-.6,1.76-1.38,2.26-2.35l2.1,1.3c-.8,1.35-1.88,2.42-3.26,3.21-1.38.79-2.95,1.18-4.71,1.18-2.85,0-5.17-.94-6.96-2.82-1.79-1.88-2.68-4.27-2.68-7.17s.88-5.23,2.65-7.13c1.76-1.91,4.04-2.86,6.81-2.86Zm0,2.44c-1.88,0-3.46.59-4.73,1.77s-2.02,2.72-2.26,4.6h13.52c-.24-2.01-.98-3.57-2.21-4.69-1.23-1.12-2.67-1.68-4.31-1.68Z"/>
  <path d="m766.44,160.2h2.46l-5.58,19.08h-2.61l-4.67-15.37-4.67,15.37h-2.61l-5.58-19.08h2.46l4.46,15.83,4.75-15.83h2.39l4.75,15.83,4.46-15.83Z"/>
  <path d="m775.97,155.62c-.34.36-.75.53-1.23.53s-.89-.18-1.23-.53c-.34-.36-.51-.79-.51-1.3s.17-.94.51-1.3c.34-.36.75-.53,1.23-.53s.89.18,1.23.53c.34.36.51.79.51,1.3s-.17.94-.51,1.3Zm-2.43,23.65v-19.08h2.39v19.08h-2.39Z"/>
  <path d="m794.6,162.64h-5.22v11.56c0,1.04.19,1.79.58,2.23.39.45.97.67,1.74.69s1.74,0,2.9-.06v2.21c-2.54.41-4.44.22-5.71-.57s-1.9-2.29-1.9-4.5v-11.56h-3.81v-2.44h3.81v-4.58l2.39-.76v5.34h5.22v2.44Z"/>
  <path d="m808.47,159.74c2.2,0,3.93.71,5.2,2.12,1.27,1.41,1.9,3.31,1.9,5.7v11.71h-2.39v-11.71c0-1.7-.43-3.03-1.29-3.97-.86-.94-2.07-1.41-3.64-1.41-1.74,0-3.15.58-4.24,1.74-1.09,1.16-1.63,2.94-1.63,5.36v10h-2.39v-26.71h2.39v10.61c1.35-2.29,3.38-3.43,6.09-3.43Z"/>
  <path d="m842.39,162.64h-5.22v11.56c0,1.04.19,1.79.58,2.23.39.45.97.67,1.74.69s1.74,0,2.9-.06v2.21c-2.54.41-4.44.22-5.71-.57s-1.9-2.29-1.9-4.5v-11.56h-3.81v-2.44h3.81v-4.58l2.39-.76v5.34h5.22v2.44Z"/>
  <path d="m855.8,159.74c2.68,0,4.85,1,6.5,2.99,1.66,2,2.48,4.36,2.48,7.08,0,.28-.02.67-.07,1.18h-15.91c.24,1.93,1.02,3.47,2.34,4.6,1.32,1.13,2.94,1.7,4.87,1.7,1.38,0,2.57-.3,3.57-.9,1-.6,1.76-1.38,2.26-2.35l2.1,1.3c-.8,1.35-1.88,2.42-3.26,3.21-1.38.79-2.95,1.18-4.71,1.18-2.85,0-5.17-.94-6.96-2.82-1.79-1.88-2.68-4.27-2.68-7.17s.88-5.23,2.65-7.13c1.76-1.91,4.04-2.86,6.81-2.86Zm0,2.44c-1.88,0-3.46.59-4.73,1.77s-2.02,2.72-2.26,4.6h13.52c-.24-2.01-.98-3.57-2.21-4.69-1.23-1.12-2.67-1.68-4.31-1.68Z"/>
  <path d="m878.05,179.73c-2.73,0-5-.96-6.81-2.88-1.81-1.92-2.72-4.29-2.72-7.12s.91-5.19,2.72-7.11c1.81-1.92,4.08-2.88,6.81-2.88,1.79,0,3.39.45,4.82,1.35,1.43.9,2.46,2.12,3.12,3.64l-1.96,1.18c-.48-1.14-1.26-2.05-2.34-2.73s-2.29-1.01-3.64-1.01c-2.01,0-3.7.73-5.07,2.19-1.38,1.46-2.07,3.25-2.07,5.36s.69,3.9,2.07,5.36c1.38,1.46,3.07,2.19,5.07,2.19,1.35,0,2.56-.34,3.62-1.01,1.06-.67,1.9-1.58,2.5-2.73l1.99,1.22c-.75,1.53-1.85,2.73-3.3,3.62-1.45.89-3.06,1.34-4.82,1.34Z"/>
  <path d="m898.42,159.74c2.2,0,3.93.71,5.2,2.12,1.27,1.41,1.9,3.31,1.9,5.7v11.71h-2.39v-11.71c0-1.7-.43-3.03-1.29-3.97-.86-.94-2.07-1.41-3.64-1.41-1.74,0-3.15.58-4.24,1.74-1.09,1.16-1.63,2.94-1.63,5.36v10h-2.39v-26.71h2.39v10.61c1.35-2.29,3.38-3.43,6.09-3.43Z"/>
  <path d="m919.66,159.74c2.2,0,3.93.71,5.2,2.12,1.27,1.41,1.9,3.31,1.9,5.7v11.71h-2.39v-11.71c0-1.7-.43-3.03-1.29-3.97-.86-.94-2.07-1.41-3.64-1.41-1.74,0-3.15.58-4.24,1.74-1.09,1.16-1.63,2.94-1.63,5.36v10h-2.39v-19.08h2.39v2.98c1.35-2.29,3.38-3.43,6.09-3.43Z"/>
  <path d="m947.62,176.85c-1.85,1.92-4.1,2.88-6.76,2.88s-4.91-.96-6.76-2.88-2.77-4.29-2.77-7.12.92-5.19,2.77-7.11c1.85-1.92,4.1-2.88,6.76-2.88s4.91.96,6.76,2.88c1.85,1.92,2.77,4.29,2.77,7.11s-.92,5.19-2.77,7.12Zm-11.83-1.75c1.38,1.46,3.07,2.19,5.07,2.19s3.7-.73,5.07-2.19,2.07-3.25,2.07-5.36-.69-3.9-2.07-5.36c-1.38-1.46-3.07-2.19-5.07-2.19s-3.7.73-5.07,2.19c-1.38,1.46-2.07,3.25-2.07,5.36s.69,3.9,2.07,5.36Z"/>
  <path d="m955.39,179.27v-27.85h2.39v27.85h-2.39Z"/>
  <path d="m979.08,176.85c-1.85,1.92-4.1,2.88-6.76,2.88s-4.91-.96-6.76-2.88-2.77-4.29-2.77-7.12.92-5.19,2.77-7.11c1.85-1.92,4.1-2.88,6.76-2.88s4.91.96,6.76,2.88c1.85,1.92,2.77,4.29,2.77,7.11s-.92,5.19-2.77,7.12Zm-11.83-1.75c1.38,1.46,3.07,2.19,5.07,2.19s3.7-.73,5.07-2.19,2.07-3.25,2.07-5.36-.69-3.9-2.07-5.36c-1.38-1.46-3.07-2.19-5.07-2.19s-3.7.73-5.07,2.19c-1.38,1.46-2.07,3.25-2.07,5.36s.69,3.9,2.07,5.36Z"/>
  <path d="m1002.44,160.2h2.39v18.31c0,2.75-.89,4.91-2.68,6.49-1.79,1.58-3.93,2.37-6.42,2.37-4.25,0-7.12-1.55-8.59-4.65l2.1-1.26c1.09,2.31,3.25,3.47,6.49,3.47,2.08,0,3.71-.58,4.91-1.74s1.79-2.71,1.79-4.67v-2.98c-1.67,2.8-4.11,4.2-7.32,4.2-2.59,0-4.79-.97-6.61-2.9-1.82-1.93-2.74-4.3-2.74-7.1s.91-5.16,2.74-7.1c1.82-1.93,4.03-2.9,6.61-2.9,3.21,0,5.65,1.4,7.32,4.2v-3.74Zm-12.21,14.9c1.38,1.46,3.07,2.19,5.07,2.19s3.7-.73,5.07-2.19c1.38-1.46,2.07-3.25,2.07-5.36s-.69-3.9-2.07-5.36c-1.38-1.46-3.07-2.19-5.07-2.19s-3.7.73-5.07,2.19c-1.38,1.46-2.07,3.25-2.07,5.36s.69,3.9,2.07,5.36Z"/>
  <path d="m1023.96,160.2h2.54l-7.76,20.83c-.7,1.88-1.7,3.36-2.99,4.44-1.29,1.08-2.74,1.56-4.33,1.43v-2.37c2.17.25,3.83-1.07,4.97-3.97l.47-1.18-8.12-19.19h2.54l6.81,15.98,5.87-15.98Z"/>
</svg>